<?xml version="1.0" encoding="iso-8859-1"?>
<!-- Generator: Adobe Illustrator 19.0.0, SVG Export Plug-In . SVG Version: 6.00 Build 0)  -->
<svg version="1.1" id="Capa_1" xmlns="http://www.w3.org/2000/svg" xmlns:xlink="http://www.w3.org/1999/xlink" x="0px" y="0px"
	 viewBox="0 0 448.524 448.524" style="enable-background:new 0 0 448.524 448.524;" xml:space="preserve">
<path style="fill:#CDDCF0;" d="M89.544,343.701c-45.434,44.523-57.054,59.58-57.054,88.823c0,8.836,7.156,16,16,16s16-7.164,16-16
	c0-16.822,7.484-26.799,48-66.498C104.511,358.207,97.297,351.222,89.544,343.701z"/>
<path style="fill:#264C78;" d="M135.437,343.701l11.403-11.062c-6.916-6.785-14.536-14.174-22.943-22.322l-11.406,11.067
	C120.372,329.033,127.183,335.613,135.437,343.701z"/>
<path style="fill:#ACB7C8;" d="M89.565,343.721c-3.986,3.911-7.984,7.83-11.477,11.326l1.12,1.086c8.296,8.04,15.45,15,21.81,21.236
	c3.475-3.474,7.357-7.299,11.477-11.339C104.222,357.925,97.497,351.418,89.565,343.721z"/>
<path style="fill:#C64047;" d="M130.525,384.001H72.08c-8.844,0-16,7.164-16,16s7.156,16,16,16h84.638
	C152.761,408.078,144.946,398.733,130.525,384.001z"/>
<path style="fill:#A4353B;" d="M130.525,384.001h-0.39c-5.375,0-9.731,7.163-9.731,16c0,8.836,4.357,16,9.731,16h26.582
	C152.761,408.078,144.946,398.733,130.525,384.001z"/>
<g>
	<path style="fill:#3A71B2;" d="M135.427,104.844C175.361,65.644,192.49,44.965,192.49,16c0-8.836-7.156-16-16-16s-16,7.164-16,16
		c0,16.514-11.474,30.647-48.014,66.518C119.222,89.145,126.876,96.57,135.427,104.844z"/>
	<path style="fill:#3A71B2;" d="M48.662,224.321c0-38.639,37.017-71.182,63.802-97.142c-8.38-8.088-16.03-15.495-22.959-22.306
		c-28.461,27.575-72.842,66.611-72.842,119.439c0,91.437,143.828,156.875,143.828,208.211c0,8.836,7.156,16,16,16s16-7.164,16-16
		C192.49,359.964,48.662,299.277,48.662,224.321z"/>
</g>
<path style="fill:#FDDA5F;" d="M94.021,64.001h58.134c8.844,0,16-7.164,16-16s-7.156-16-16-16H68.489
	C72.729,40.471,80.729,50.219,94.021,64.001z"/>
<path style="fill:#7BC24D;" d="M171.143,199.32c-3.958-9.997-10.21-20.355-19.04-31.319c-29.306,0-58.806,0-94.894,0
	c-8.844,0-16,7.164-16,16s7.156,16,16,16c42.357,0,74.827,0,110.562,0C168.968,200.001,170.021,199.569,171.143,199.32z"/>
<path style="fill:#D3B74E;" d="M97.065,32.001H68.489c4.24,8.47,12.24,18.218,25.533,32h3.044c-5.374,0-9.73-7.164-9.73-16
	C87.335,39.163,91.692,32.001,97.065,32.001z"/>
<g>
	<path style="fill:#264C78;" d="M135.407,104.826c3.928-3.864,7.862-7.729,11.375-11.278l-2.042-1.978
		c-7.902-7.638-14.64-14.208-20.875-20.336c-3.428,3.45-7.388,7.342-11.394,11.279C119.213,89.136,126.862,96.556,135.407,104.826z"
		/>
	<path style="fill:#264C78;" d="M89.505,104.874l-11.454,11.098c6.842,6.727,14.134,13.81,22.19,21.6l0.751,0.727l11.473-11.119
		C104.084,119.091,96.435,111.684,89.505,104.874z"/>
</g>
<path style="fill:#CDDCF0;" d="M153.709,122.539C83.888,54.89,64.491,37.675,64.491,16c0-8.836-7.156-16-16-16s-16,7.164-16,16
	c0,37.023,27.418,60.193,98.906,129.477c30.641,29.805,44.922,54.859,44.922,78.844c0,38.455-36.882,70.918-63.828,97.063
	c7.882,7.648,14.693,14.228,22.946,22.317c28.566-27.709,72.882-66.7,72.882-119.388
	C208.318,191.118,190.959,158.774,153.709,122.539z"/>
<path style="fill:#5886C5;" d="M72.481,280.001c11.425,0,86.622,0,97.526,0c8.844,0,16-7.164,16-16s-7.156-16-16-16H53.381
	C57.237,258.202,63.506,268.782,72.481,280.001z"/>
<path style="fill:#ACB7C8;" d="M112.495,321.379c0,0,15.098,14.634,22.942,22.322l31.188-30.777
	c-6.908-6.778-14.519-14.158-22.915-22.295C139.797,294.415,116.157,317.825,112.495,321.379z"/>
<path style="fill:#5B986C;" d="M152.565,200.001h18.825c-3.923-10.171-10.216-20.71-19.195-31.877
	c-5.192,0.338-9.36,7.256-9.36,15.877C142.835,192.837,147.192,200.001,152.565,200.001z"/>
<path style="fill:#264C78;" d="M67.344,264.001c0-8.837,4.357-16,9.73-16H53.381c3.855,10.201,10.125,20.782,19.1,32h4.594
	C71.701,280.001,67.344,272.837,67.344,264.001z"/>
<path style="fill:#565656;" d="M339.71,280.734l85.931,86.435c8.308,8.326,8.292,21.811-0.038,30.118l-15.08,15.041
	c-8.326,8.304-21.807,8.288-30.113-0.037L294.4,325.775L339.71,280.734z"/>
<polygon style="fill:#454545;" points="347.538,288.609 347.538,379.226 294.244,325.93 339.575,280.599 "/>
<path style="fill:#CDCCCC;" d="M236.48,96.001c-70.693,0-128,57.307-128,128s57.307,128,128,128s128-57.307,128-128
	S307.173,96.001,236.48,96.001z"/>
<path style="fill:#CDDCF0;" d="M326.465,257.297c-8.894,24.036-26.614,43.17-49.901,53.878c-12.73,5.852-26.175,8.822-39.965,8.822
	c-37.412,0-71.677-21.947-87.293-55.911c-10.707-23.285-11.706-49.345-2.811-73.381c8.894-24.038,26.614-43.17,49.901-53.878
	c12.726-5.852,26.179-8.819,39.986-8.822c37.398,0.002,71.655,21.947,87.272,55.91C334.361,207.201,335.361,233.261,326.465,257.297
	z"/>
<g>
	<path style="fill:#DEDEDD;" d="M208.318,115.713l-4.941-15.234c-54.618,14.608-94.898,64.296-94.898,123.522h16
		C124.48,171.889,160.121,128.219,208.318,115.713z"/>
	<path style="fill:#DEDEDD;" d="M348.48,224.001h-16.11c-0.006,11.218-1.895,22.462-5.906,33.296
		c-8.894,24.036-26.615,43.171-49.902,53.878c-4.93,2.266-9.993,3.966-15.116,5.362l4.394,15.442
		C313.431,319.062,348.48,275.678,348.48,224.001z"/>
</g>
<polygon style="fill:#83A6D0;" points="200.847,160.001 236.48,180.569 236.48,221.71 200.847,242.285 165.214,221.71 
	165.214,180.569 "/>
<polygon style="fill:#3A71B2;" points="272.113,160.001 307.745,180.569 307.745,221.71 272.113,242.285 236.48,221.71 
	236.48,180.569 "/>
<polygon style="fill:#A0BCDD;" points="236.48,221.716 272.113,242.285 272.113,283.426 236.48,304.001 200.847,283.426 
	200.847,242.285 "/>
<path style="opacity:0.5;fill:#D5E2F2;enable-background:new    ;" d="M244.516,226.349l27.597,15.935L244.516,226.349z"/>
<path style="fill:#D1DFF2;" d="M272.113,242.285v32c17.673,0,32-14.327,32-32c0-5.832-1.678-11.226-4.403-15.935L272.113,242.285z"
	/>
<path style="fill:#BFD1E9;" d="M244.513,226.354c-2.725,4.708-4.4,10.1-4.4,15.93c0,17.673,14.327,32,32,32v-32L244.513,226.354z"/>
<path style="fill:#8BABD3;" d="M272.113,242.285l27.597-15.935c-5.534-9.561-15.756-16.065-27.597-16.065
	s-22.062,6.504-27.597,16.065L272.113,242.285z"/>
<path style="opacity:0.8;fill:#839FC7;enable-background:new    ;" d="M157.56,241.076c0-52.933,43.063-95.995,95.995-95.995
	c22.078,0,42.302,7.642,58.518,20.234c-17.573-22.596-44.818-37.31-75.593-37.31c-52.933,0-95.995,43.063-95.995,95.995
	c0,30.775,14.714,58.02,37.31,75.593C165.201,283.378,157.56,263.154,157.56,241.076z"/>
<g>
</g>
<g>
</g>
<g>
</g>
<g>
</g>
<g>
</g>
<g>
</g>
<g>
</g>
<g>
</g>
<g>
</g>
<g>
</g>
<g>
</g>
<g>
</g>
<g>
</g>
<g>
</g>
<g>
</g>
</svg>
