<?xml version="1.0"?>
<svg xmlns="http://www.w3.org/2000/svg" height="512px" version="1.1" viewBox="1 -7 582.731 582" width="512px" class=""><g><g id="surface1">
<path d="M 136.035156 239.542969 L 136.035156 329.308594 L 213.765625 374.1875 L 213.765625 371.875 L 213.765625 374.1875 L 291.5 329.308594 L 291.5 239.542969 L 213.765625 194.664062 Z M 136.035156 239.542969 " style="fill:#00DDC2" data-original="#00DDC2" class="" data-old_color=" stroke:nonefill-rule:nonzero;rgb(0%,86.666667%,76.078431%);fill-opacity:1;"/>
<path d="M 58.300781 193.273438 L 136.035156 238.15625 L 213.765625 193.273438 L 213.765625 103.511719 L 136.035156 58.628906 L 136.035156 60.941406 L 136.035156 58.628906 L 58.300781 103.511719 Z M 58.300781 193.273438 " style="fill:#00DDC2" data-original="#00DDC2" class="" data-old_color=" stroke:nonefill-rule:nonzero;rgb(0%,86.666667%,76.078431%);fill-opacity:1;"/>
<path d="M 136.035156 182.398438 L 174.898438 216.410156 L 213.765625 182.398438 L 213.765625 114.382812 L 174.898438 80.375 L 174.898438 82.125 L 174.898438 80.375 L 136.035156 114.382812 Z M 136.035156 182.398438 " style=" stroke:none;fill-rule:nonzero;fill:rgb(100%,89.411765%,46.666667%);fill-opacity:1;" data-original="#FFE477" class=""/>
<path d="M 213.765625 318.433594 L 252.632812 352.441406 L 291.5 318.433594 L 291.5 250.417969 L 252.632812 216.410156 L 252.632812 218.15625 L 252.632812 216.410156 L 213.765625 250.417969 Z M 213.765625 318.433594 " style=" stroke:none;fill-rule:nonzero;fill:rgb(100%,89.411765%,46.666667%);fill-opacity:1;" data-original="#FFE477" class=""/>
<path d="M 369.234375 374.1875 L 446.96875 329.308594 L 446.96875 239.542969 L 369.234375 194.664062 L 369.234375 196.976562 L 369.234375 194.664062 L 291.5 239.542969 L 291.5 329.308594 Z M 369.234375 374.1875 " style="fill:#00DDC2" data-original="#00DDC2" class="" data-old_color=" stroke:nonefill-rule:nonzero;rgb(0%,86.666667%,76.078431%);fill-opacity:1;"/>
<path d="M 524.699219 375.578125 L 446.96875 330.695312 L 369.234375 375.578125 L 369.234375 465.339844 L 446.96875 510.222656 L 446.96875 507.910156 L 446.96875 510.222656 L 524.699219 465.339844 Z M 524.699219 375.578125 " style="fill:#00DDC2" data-original="#00DDC2" class="" data-old_color=" stroke:nonefill-rule:nonzero;rgb(0%,86.666667%,76.078431%);fill-opacity:1;"/>
<path d="M 417.816406 144.691406 L 495.550781 189.570312 L 495.550781 187.257812 L 495.550781 189.570312 L 573.285156 144.691406 L 573.285156 54.925781 L 495.550781 10.046875 L 417.816406 54.925781 Z M 417.816406 144.691406 " style=" stroke:none;fill-rule:nonzero;fill:rgb(100%,89.411765%,46.666667%);fill-opacity:1;" data-original="#FFE477" class=""/>
<path d="M 165.183594 513.921875 L 165.183594 424.160156 L 87.449219 379.28125 L 87.449219 381.59375 L 87.449219 379.28125 L 9.714844 424.160156 L 9.714844 513.921875 L 87.449219 558.804688 Z M 165.183594 513.921875 " style=" stroke:none;fill-rule:nonzero;fill:rgb(100%,89.411765%,46.666667%);fill-opacity:1;" data-original="#FFE477" class=""/>
<path d="M 369.234375 318.433594 L 408.101562 352.441406 L 446.96875 318.433594 L 446.96875 250.417969 L 408.101562 216.410156 L 408.101562 218.15625 L 408.101562 216.410156 L 369.234375 250.417969 Z M 369.234375 318.433594 " style=" stroke:none;fill-rule:nonzero;fill:rgb(100%,89.411765%,46.666667%);fill-opacity:1;" data-original="#FFE477" class=""/>
<path d="M 417.816406 133.816406 L 456.683594 167.824219 L 495.550781 133.816406 L 495.550781 65.800781 L 456.683594 31.792969 L 456.683594 33.542969 L 456.683594 31.792969 L 417.816406 65.800781 Z M 417.816406 133.816406 " style="fill:#00DDC2" data-original="#00DDC2" class="" data-old_color=" stroke:nonefill-rule:nonzero;rgb(0%,86.666667%,76.078431%);fill-opacity:1;"/>
<path d="M 9.714844 503.050781 L 48.582031 537.058594 L 87.449219 503.050781 L 87.449219 435.035156 L 48.582031 401.023438 L 48.582031 402.773438 L 48.582031 401.023438 L 9.714844 435.035156 Z M 9.714844 503.050781 " style="fill:#00DDC2" data-original="#00DDC2" class="" data-old_color=" stroke:nonefill-rule:nonzero;rgb(0%,86.666667%,76.078431%);fill-opacity:1;"/>
<path d="M 446.96875 454.46875 L 485.832031 488.476562 L 524.699219 454.46875 L 524.699219 386.449219 L 485.832031 352.441406 L 485.832031 354.191406 L 485.832031 352.441406 L 446.96875 386.449219 Z M 446.96875 454.46875 " style=" stroke:none;fill-rule:nonzero;fill:rgb(100%,89.411765%,46.666667%);fill-opacity:1;" data-original="#FFE477" class=""/>
<path d="M 578.140625 46.511719 L 500.410156 1.671875 C 497.402344 -0.0664062 493.699219 -0.0664062 490.691406 1.671875 L 421.761719 41.507812 L 385.8125 5.558594 L 372.082031 19.230469 L 408.101562 55.25 L 408.101562 144.371094 L 391.515625 160.957031 L 405.253906 174.695312 L 421.773438 158.175781 L 485.835938 195.179688 L 485.835938 245.558594 L 505.265625 245.558594 L 505.265625 195.179688 L 578.140625 153.105469 C 581.148438 151.367188 583 148.160156 583 144.691406 L 583 54.925781 C 583 51.457031 581.148438 48.25 578.140625 46.511719 Z M 563.566406 139.082031 L 495.550781 178.347656 L 427.535156 139.082031 L 427.535156 60.535156 L 495.550781 21.269531 L 563.566406 60.535156 Z M 563.566406 139.082031 " style="fill:#A0A8B9" data-original="#231F20" class="active-path" data-old_color="#FCF8F8"/>
<path d="M 174.898438 424.480469 L 191.488281 407.894531 L 177.746094 394.15625 L 161.226562 410.675781 L 97.167969 373.671875 L 97.167969 342.726562 L 77.734375 342.726562 L 77.734375 373.671875 L 4.859375 415.746094 C 1.851562 417.480469 0 420.6875 0 424.160156 L 0 513.921875 C 0 517.394531 1.851562 520.601562 4.859375 522.339844 L 82.59375 567.21875 C 85.597656 568.957031 89.300781 568.957031 92.308594 567.21875 L 161.238281 527.382812 L 182.617188 548.757812 L 196.355469 535.019531 L 174.898438 513.601562 Z M 155.464844 508.316406 L 87.449219 547.582031 L 19.433594 508.316406 L 19.433594 429.765625 L 87.449219 390.503906 L 155.464844 429.765625 Z M 155.464844 508.316406 " style="fill:#A0A8B9" data-original="#231F20" class="active-path" data-old_color="#FCF8F8"/>
<path d="M 560.71875 349.59375 L 546.980469 335.855469 L 520.746094 362.089844 L 456.683594 325.089844 L 456.683594 239.863281 L 482.988281 213.5625 L 469.246094 199.820312 L 443.011719 226.058594 L 378.949219 189.054688 L 378.949219 138.675781 L 359.519531 138.675781 L 359.519531 189.054688 L 291.5 228.320312 L 223.484375 189.054688 L 223.484375 103.832031 L 259.503906 67.8125 L 245.761719 54.070312 L 209.8125 90.023438 L 145.75 53.023438 L 145.75 2.640625 L 126.316406 2.640625 L 126.316406 53.023438 L 62.246094 90.015625 L 31.152344 58.921875 L 17.421875 72.667969 L 48.582031 103.832031 L 48.582031 192.953125 L 12.5625 228.972656 L 26.304688 242.710938 L 62.253906 206.757812 L 126.316406 243.761719 L 126.316406 328.984375 L 100.011719 355.289062 L 113.753906 369.027344 L 139.988281 342.792969 L 204.050781 379.792969 L 204.050781 430.175781 L 223.480469 430.175781 L 223.480469 379.792969 L 291.5 340.527344 L 359.515625 379.792969 L 359.515625 465.019531 L 338.070312 486.464844 L 351.808594 500.203125 L 373.1875 478.828125 L 437.246094 515.828125 L 437.246094 566.210938 L 456.679688 566.210938 L 456.679688 515.828125 L 520.753906 478.835938 L 542.128906 500.214844 L 555.867188 486.472656 L 534.414062 465.019531 L 534.414062 375.898438 Z M 68.015625 109.117188 L 136.03125 69.851562 L 204.050781 109.117188 L 204.050781 187.667969 L 136.03125 226.933594 L 68.015625 187.667969 Z M 145.75 245.152344 L 213.765625 205.886719 L 281.78125 245.152344 L 281.78125 323.699219 L 213.765625 362.964844 L 145.75 323.699219 Z M 301.21875 245.152344 L 369.234375 205.886719 L 437.25 245.152344 L 437.25 323.699219 L 369.234375 362.964844 L 301.21875 323.699219 Z M 514.984375 459.734375 L 446.96875 499 L 378.949219 459.734375 L 378.949219 381.183594 L 446.96875 341.917969 L 514.984375 381.183594 Z M 514.984375 459.734375 " style="fill:#A0A8B9" data-original="#231F20" class="active-path" data-old_color="#FCF8F8"/>
</g></g> </svg>
