<?xml version="1.0" encoding="iso-8859-1"?>
<!-- Generator: Adobe Illustrator 19.0.0, SVG Export Plug-In . SVG Version: 6.00 Build 0)  -->
<svg version="1.1" id="Layer_1" xmlns="http://www.w3.org/2000/svg" xmlns:xlink="http://www.w3.org/1999/xlink" x="0px" y="0px"
	 viewBox="0 0 512.001 512.001" style="enable-background:new 0 0 512.001 512.001;" xml:space="preserve">
<g>
	<polygon style="fill:#0C92B6;" points="160.248,293.153 110.876,365.147 401.127,365.147 354.432,293.153 	"/>
	<polygon style="fill:#0C92B6;" points="361.798,217.166 401.127,146.858 110.876,146.858 158.239,217.166 	"/>
	<rect x="111.369" y="417.375" style="fill:#0C92B6;" width="289.267" height="56.246"/>
	<rect x="111.369" y="38.383" style="fill:#0C92B6;" width="289.267" height="56.246"/>
</g>
<g>
	<polygon style="fill:#01AEDB;" points="256.001,293.153 160.248,293.153 110.876,365.147 256.001,365.147 	"/>
	<polygon style="fill:#01AEDB;" points="256.001,146.858 110.876,146.858 158.239,217.166 256.001,217.166 	"/>
	<rect x="110.873" y="417.375" style="fill:#01AEDB;" width="145.129" height="56.246"/>
	<rect x="110.873" y="38.383" style="fill:#01AEDB;" width="145.129" height="56.246"/>
</g>
<g>
	<path style="fill:#364A57;" d="M382.846,301.577L170.557,150.529c-33.874-24.16-47.421-65.344-33.716-102.478
		c6.811-18.456-2.662-39.012-21.114-45.822c-8.942-3.302-18.631-2.923-27.289,1.065c-8.654,3.989-15.237,11.109-18.537,20.049
		c-24.995,67.723-1.187,142.189,59.256,185.302l212.289,151.048c34.4,24.535,47.756,66.226,33.236,103.744
		c-7.099,18.347,2.05,39.048,20.396,46.149c4.135,1.6,8.466,2.412,12.87,2.412c14.624,0,27.999-9.165,33.28-22.807
		C467.706,420.768,444.248,345.377,382.846,301.577z"/>
	<path style="fill:#364A57;" d="M442.1,23.345c-3.3-8.939-9.882-16.06-18.537-20.048c-8.654-3.988-18.343-4.366-27.288-1.067
		c-18.456,6.811-27.926,27.368-21.115,45.823c13.707,37.133,0.167,78.307-33.681,102.451L129.123,301.604
		c-61.38,43.782-84.825,119.169-58.342,187.59c5.278,13.642,18.652,22.808,33.278,22.808c4.406,0,8.737-0.812,12.87-2.412
		c18.346-7.102,27.495-27.803,20.395-46.149c-14.52-37.518-1.174-79.203,33.201-103.722l212.358-151.099
		C443.299,165.522,467.096,91.067,442.1,23.345z"/>
</g>
<g>
	<path style="fill:#476172;" d="M256.001,211.324l-85.444-60.796c-33.874-24.162-47.421-65.344-33.716-102.478
		c6.811-18.456-2.662-39.012-21.114-45.822c-8.942-3.302-18.631-2.923-27.289,1.065c-8.654,3.989-15.237,11.109-18.537,20.049
		c-24.995,67.723-1.187,142.189,59.256,185.302l126.845,90.253v-87.573H256.001z"/>
	<path style="fill:#476172;" d="M256.001,211.324l-126.88,90.278c-61.38,43.782-84.825,119.169-58.342,187.59
		C76.057,502.835,89.431,512,104.057,512c4.406,0,8.736-0.812,12.87-2.412c18.346-7.102,27.495-27.803,20.395-46.149
		c-14.52-37.518-1.174-79.203,33.201-103.722l85.478-60.82V211.324z"/>
</g>
<g>
</g>
<g>
</g>
<g>
</g>
<g>
</g>
<g>
</g>
<g>
</g>
<g>
</g>
<g>
</g>
<g>
</g>
<g>
</g>
<g>
</g>
<g>
</g>
<g>
</g>
<g>
</g>
<g>
</g>
</svg>
