<?xml version="1.0" encoding="iso-8859-1"?>
<!-- Generator: Adobe Illustrator 19.0.0, SVG Export Plug-In . SVG Version: 6.00 Build 0)  -->
<svg version="1.1" id="Layer_1" xmlns="http://www.w3.org/2000/svg" xmlns:xlink="http://www.w3.org/1999/xlink" x="0px" y="0px"
	 viewBox="0 0 512 512" style="enable-background:new 0 0 512 512;" xml:space="preserve">
<path style="fill:#DD6B5B;" d="M179.958,282.085L85.105,148.858c-7.033-9.879-20.744-12.187-30.626-5.153
	c-9.881,7.035-12.187,20.745-5.153,30.626l118.361,166.246c0.788,1.107,1.684,2.085,2.624,2.998
	c0.697,3.364,2.183,6.616,4.514,9.456c1.501,1.829,3.246,3.329,5.134,4.54V282.085z"/>
<path style="fill:#AA5446;" d="M439.687,131.195c-7.692-9.376-21.531-10.742-30.907-3.048L191.686,306.281l-13.323-18.712v71.979
	c2.546,0.985,5.24,1.515,7.953,1.515c4.9,0,9.832-1.632,13.917-4.984L436.64,162.102
	C446.014,154.409,447.379,140.572,439.687,131.195z"/>
<path style="fill:#0C92B6;" d="M442.566,58.081c-23.249-5.301-47.172-1.236-67.364,11.453
	c-20.19,12.689-34.232,32.482-39.535,55.731c-10.951,47.995,19.188,95.951,67.184,106.9l0,0c6.658,1.518,13.308,2.246,19.867,2.246
	c40.715,0,77.602-28.095,87.035-69.432C520.702,116.988,490.563,69.032,442.566,58.081z"/>
<path style="fill:#B9CED9;" d="M111.264,120.752c-8.563-13.626-21.921-23.101-37.609-26.679
	c-32.389-7.392-64.75,12.949-72.139,45.337c-7.389,32.389,12.949,64.75,45.337,72.139c4.493,1.026,8.982,1.517,13.408,1.517
	c27.475,0,52.367-18.958,58.731-46.853C122.571,150.522,119.827,134.376,111.264,120.752z"/>
<circle style="fill:#364A57;" cx="186.297" cy="339.096" r="117.09"/>
<path style="fill:#476172;" d="M186.297,456.18c-64.668,0-117.09-52.422-117.09-117.09S121.629,222,186.297,222V456.18z"/>
<path style="fill:#B9CED9;" d="M176.582,403.766c-1.618,0-3.26-0.179-4.904-0.555c-17.123-3.906-31.702-14.246-41.048-29.12
	c-9.346-14.87-12.342-32.49-8.434-49.616c2.698-11.822,14.47-19.226,26.294-16.525c11.825,2.698,19.223,14.47,16.526,26.295
	c-1.297,5.686-0.303,11.537,2.801,16.475s7.944,8.371,13.632,9.668c11.825,2.698,19.223,14.47,16.526,26.295
	C195.649,396.866,186.6,403.766,176.582,403.766z"/>
<g>
</g>
<g>
</g>
<g>
</g>
<g>
</g>
<g>
</g>
<g>
</g>
<g>
</g>
<g>
</g>
<g>
</g>
<g>
</g>
<g>
</g>
<g>
</g>
<g>
</g>
<g>
</g>
<g>
</g>
</svg>
