<?xml version="1.0" encoding="iso-8859-1"?>
<!-- Generator: Adobe Illustrator 19.0.0, SVG Export Plug-In . SVG Version: 6.00 Build 0)  -->
<svg version="1.1" id="Layer_1" xmlns="http://www.w3.org/2000/svg" xmlns:xlink="http://www.w3.org/1999/xlink" x="0px" y="0px"
	 viewBox="0 0 510.862 510.862" style="enable-background:new 0 0 510.862 510.862;" xml:space="preserve">
<g>
	<path style="fill:#DD6B5B;" d="M218.605,266.25c-2.201,0.576-4.317,1.622-6.19,3.161L37.324,413.076
		c-6.944,5.698-7.955,15.946-2.256,22.891c5.697,6.944,15.946,7.956,22.891,2.258l160.646-131.815V266.25z"/>
	<path style="fill:#DD6B5B;" d="M218.605,229.017l-83.487-117.263c-6.19-8.696-18.258-10.726-26.956-4.536
		c-8.697,6.192-10.726,18.26-4.536,26.956l104.179,146.326c0.693,0.974,1.482,1.835,2.309,2.639
		c0.613,2.961,1.921,5.823,3.973,8.323c1.321,1.609,2.857,2.93,4.519,3.996L218.605,229.017L218.605,229.017z"/>
</g>
<path style="fill:#AA5446;" d="M323.412,404.019l-87.661-123.126c-0.584-0.82-1.246-1.544-1.943-2.222
	c-0.517-2.492-1.617-4.901-3.343-7.004c-3.216-3.919-7.88-5.948-12.583-5.948c-0.227,0-0.454,0.019-0.68,0.028v45.176l79.712,111.96
	c5.209,7.317,15.364,9.025,22.682,3.817C326.913,421.491,328.622,411.337,323.412,404.019z"/>
<path style="fill:#01AEDB;" d="M45.638,479.513c15.282,3.484,31.008,0.812,44.279-7.528c13.271-8.341,22.5-21.351,25.987-36.634
	c7.198-31.548-12.612-63.069-44.16-70.268l0,0c-4.377-0.999-8.748-1.477-13.059-1.477c-26.762,0-51.009,18.467-57.209,45.639
	C-5.719,440.793,14.09,472.315,45.638,479.513z"/>
<path style="fill:#96A8B0;" d="M273.467,443.701c6.341,10.091,16.234,17.109,27.854,19.759c23.989,5.474,47.955-9.591,53.428-33.578
	c5.473-23.987-9.59-47.955-33.578-53.428c-3.328-0.759-6.652-1.122-9.93-1.122c-20.348,0-38.784,14.041-43.498,34.701
	C265.093,421.653,267.125,433.61,273.467,443.701z"/>
<path style="fill:#AA5446;" d="M447.212,96.207c-6.77-8.252-18.952-9.454-27.204-2.683l-191.081,156.79l-11.726-16.47v63.354
	c2.241,0.867,4.612,1.334,7,1.334c4.313,0,8.654-1.437,12.249-4.386l208.08-170.735C452.783,116.639,453.984,104.459,447.212,96.207
	z"/>
<path style="fill:#0C92B6;" d="M449.748,31.854c-20.463-4.666-41.52-1.088-59.293,10.081c-17.771,11.168-30.13,28.59-34.797,49.053
	c-9.639,42.244,16.888,84.454,59.134,94.091l0,0c5.861,1.336,11.713,1.977,17.486,1.977c35.836,0,68.304-24.728,76.606-61.112
	C518.52,83.702,491.993,41.493,449.748,31.854z"/>
<path style="fill:#B9CED9;" d="M158.142,87.015c-7.537-11.993-19.293-20.333-33.103-23.484
	c-28.508-6.505-56.99,11.398-63.495,39.904c-6.504,28.508,11.398,56.991,39.904,63.495c3.955,0.903,7.906,1.335,11.801,1.335
	c24.183,0,46.092-16.686,51.694-41.239C168.094,113.218,165.679,99.007,158.142,87.015z"/>
<circle style="fill:#364A57;" cx="224.188" cy="279.195" r="103.06"/>
<path style="fill:#476172;" d="M224.185,382.252c-56.919,0-103.06-46.141-103.06-103.06s46.141-103.06,103.06-103.06V382.252z"/>
<path style="fill:#B9CED9;" d="M215.633,336.118c-1.424,0-2.87-0.157-4.317-0.488c-15.072-3.438-27.903-12.539-36.13-25.63
	c-8.226-13.088-10.863-28.597-7.424-43.671c2.375-10.405,12.737-16.922,23.143-14.544c10.408,2.375,16.919,12.737,14.546,23.145
	c-1.142,5.005-0.267,10.154,2.465,14.501c2.732,4.346,6.992,7.368,11.998,8.51c10.408,2.375,16.919,12.737,14.546,23.145
	C232.416,330.045,224.451,336.118,215.633,336.118z"/>
<g>
</g>
<g>
</g>
<g>
</g>
<g>
</g>
<g>
</g>
<g>
</g>
<g>
</g>
<g>
</g>
<g>
</g>
<g>
</g>
<g>
</g>
<g>
</g>
<g>
</g>
<g>
</g>
<g>
</g>
</svg>
