<?xml version="1.0" encoding="iso-8859-1"?>
<!-- Generator: Adobe Illustrator 19.0.0, SVG Export Plug-In . SVG Version: 6.00 Build 0)  -->
<svg version="1.1" id="Layer_1" xmlns="http://www.w3.org/2000/svg" xmlns:xlink="http://www.w3.org/1999/xlink" x="0px" y="0px"
	 viewBox="0 0 511.903 511.903" style="enable-background:new 0 0 511.903 511.903;" xml:space="preserve">
<path style="fill:#364A57;" d="M437.103,273.141l56.516-97.89c3.881-6.721,3.881-15.001,0-21.721l-32.985-57.133
	c6.608-9.853,10.468-21.695,10.468-34.424C471.103,27.801,443.302,0,409.13,0c-24.344,0-45.443,14.113-55.572,34.582h-65.962
	c-7.76,0-14.931,4.14-18.811,10.861L209.377,148.34h-51.84c-8.82-23.488-31.503-40.251-58.035-40.251
	c-3.477,0-6.883,0.303-10.205,0.854l-33.39-57.831c-5.999-10.39-19.284-13.947-29.671-7.95c-10.39,5.998-13.949,19.283-7.95,29.671
	l33.397,57.847c-8.839,10.714-14.155,24.438-14.155,39.381s5.316,28.666,14.155,39.381l-33.397,57.846
	c-3.881,6.721-3.881,15.001,0,21.721l33.751,58.458c-10.087,11.027-16.252,25.699-16.252,41.788
	c0,14.142,4.771,27.185,12.777,37.626l-30.275,52.437c-5.999,10.389-2.44,23.673,7.95,29.671c3.42,1.975,7.155,2.914,10.84,2.914
	c7.507,0,14.808-3.895,18.831-10.864l29.476-51.055c4,0.814,8.137,1.244,12.374,1.244c27.657,0,51.134-18.213,59.084-43.271h67.468
	c7.76,0,14.931-4.14,18.811-10.861l35.711-61.852c2.621,0.339,5.286,0.533,7.998,0.533c26.532,0,49.215-16.765,58.035-40.253h54.999
	l56.134,97.228c5.999,10.39,19.283,13.948,29.671,7.95c10.39-5.998,13.949-19.283,7.95-29.671L437.103,273.141z"/>
<path style="fill:#476172;" d="M300.843,34.581h-13.247c-7.76,0-14.931,4.14-18.811,10.861l-59.408,102.897h-51.84
	c-8.82-23.488-31.503-40.251-58.035-40.251c-3.477,0-6.883,0.303-10.205,0.854l-33.39-57.83c-5.999-10.39-19.284-13.947-29.671-7.95
	c-10.39,5.998-13.949,19.283-7.95,29.671l33.397,57.847c-8.839,10.714-14.155,24.438-14.155,39.381s5.316,28.666,14.155,39.381
	l-33.397,57.846c-3.881,6.721-3.881,15.001,0,21.721l33.751,58.458c-10.087,11.027-16.252,25.699-16.252,41.788
	c0,14.142,4.771,27.185,12.777,37.626l-30.275,52.437c-5.999,10.389-2.44,23.673,7.95,29.671c3.42,1.975,7.155,2.914,10.84,2.914
	c7.507,0,14.808-3.895,18.831-10.864l29.476-51.055c4,0.814,8.137,1.244,12.374,1.244c27.657,0,51.134-18.213,59.084-43.271h67.468
	c7.76,0,14.931-4.14,18.811-10.861l35.711-61.852c2.621,0.339,5.286,0.533,7.998,0.533c4.819,0,9.508-0.56,14.015-1.606V34.581z"/>
<g>
	<path style="fill:#AA5446;" d="M409.392,79.984c-10.218,0-18.53-8.314-18.53-18.531s8.312-18.53,18.53-18.53
		c10.219,0,18.531,8.312,18.531,18.53S419.612,79.984,409.392,79.984z"/>
	<path style="fill:#AA5446;" d="M286.828,292.334c-10.218,0-18.53-8.314-18.53-18.531c0-10.218,8.312-18.53,18.53-18.53
		c10.219,0,18.531,8.312,18.531,18.53C305.36,284.021,297.048,292.334,286.828,292.334z"/>
</g>
<path style="fill:#96A8B0;" d="M344.341,250.157c-9.166-21.721-31.483-38.626-57.513-38.626c-2.987,0-5.924,0.375-8.8,0.786
	l-27.757-48.096l49.865-86.386h49.141c7.091,26.066,31.231,46.018,59.854,46.018c5.542,0,10.911-0.695,16.026-2.065l24.57,42.281
	l-49.864,86.091h-55.523V250.157z"/>
<path style="fill:#B9CED9;" d="M239.47,313.715c-9.109-10.791-14.614-24.718-14.614-39.912c0-14.065,4.718-26.819,12.642-37.231
	l-25.731-44.339h-54.233c-8.82,23.17-31.503,40.027-58.035,40.027c-3.477,0-6.883-0.416-10.205-0.967l-27.117,46.912l28.6,49.507
	c2.292-0.258,4.619-0.418,6.98-0.418c23.746,0,44.403,13.446,54.805,33.103c0.715,1.354,1.386,2.711,2.001,4.159h57.204
	l28.68-49.693C240.117,314.491,239.791,314.096,239.47,313.715z"/>
<path style="fill:#96A8B0;" d="M300.843,77.834h-0.707l-49.865,86.386l27.757,48.096c2.876-0.411,5.813-0.786,8.8-0.786
	c4.819,0,9.51,0.582,14.015,1.665V77.834L300.843,77.834z"/>
<g>
	<path style="fill:#DD6B5B;" d="M99.5,188.591c-10.218,0-18.53-8.314-18.53-18.531s8.312-18.53,18.53-18.53
		c10.219,0,18.531,8.312,18.531,18.53S109.719,188.591,99.5,188.591z"/>
	<path style="fill:#DD6B5B;" d="M97.758,407.785c-0.494,0-0.98-0.036-1.464-0.074l0,0c-5.452-0.814-10.396-3.674-13.818-7.996
		c0-0.001-0.001-0.003-0.003-0.004c-2.045-2.979-3.245-6.579-3.245-10.455c0-10.218,8.312-18.531,18.531-18.531
		s18.531,8.314,18.531,18.531C116.291,399.473,107.976,407.785,97.758,407.785z"/>
	<path style="fill:#DD6B5B;" d="M300.843,261.716c-3.4-3.936-8.416-6.443-14.015-6.443c-10.218,0-18.53,8.312-18.53,18.53
		c0,10.218,8.312,18.531,18.53,18.531c5.598,0,10.615-2.505,14.015-6.443V261.716z"/>
</g>
<g>
</g>
<g>
</g>
<g>
</g>
<g>
</g>
<g>
</g>
<g>
</g>
<g>
</g>
<g>
</g>
<g>
</g>
<g>
</g>
<g>
</g>
<g>
</g>
<g>
</g>
<g>
</g>
<g>
</g>
</svg>
