<?xml version="1.0" encoding="iso-8859-1"?>
<!-- Generator: Adobe Illustrator 19.0.0, SVG Export Plug-In . SVG Version: 6.00 Build 0)  -->
<svg version="1.1" id="Layer_1" xmlns="http://www.w3.org/2000/svg" xmlns:xlink="http://www.w3.org/1999/xlink" x="0px" y="0px"
	 viewBox="0 0 512 512" style="enable-background:new 0 0 512 512;" xml:space="preserve">
<g>
	<path style="fill:#AA5446;" d="M189.96,84.565c0-10.074-8.346-18.273-18.42-18.273H86.59c-10.074,0-17.955,8.198-17.955,18.273
		c0,5.875,2.523,11.117,7.388,14.453v223.247c0,29.563,23.943,53.614,53.507,53.614s53.507-24.051,53.507-53.614V99.02
		C186.685,95.684,189.96,90.441,189.96,84.565z"/>
	<path style="fill:#AA5446;" d="M298.474,66.294h-84.948c-10.074,0-18.188,8.198-18.188,18.273c0,5.875,2.291,11.117,7.155,14.453
		v223.247c0,29.563,23.943,53.614,53.507,53.614s53.507-24.051,53.507-53.614V99.02c4.864-3.336,7.155-8.579,7.155-14.453
		C316.662,74.491,308.549,66.294,298.474,66.294z"/>
	<path style="fill:#AA5446;" d="M443.651,84.565c0-10.074-8.167-18.273-18.241-18.273h-84.95c-10.074,0-18.241,8.198-18.241,18.273
		c0,5.714,2.632,10.842,6.746,14.187v223.513c0,29.563,23.943,53.614,53.507,53.614s53.507-24.051,53.507-53.614V99.446
		C440.617,96.139,443.651,90.697,443.651,84.565z"/>
</g>
<g>
	<path style="fill:#0C92B6;" d="M189.96,84.565c0-10.074-8.346-18.273-18.42-18.273H86.59c-10.074,0-17.955,8.198-17.955,18.273
		c0,5.875,2.523,11.117,7.388,14.453v198.327h107.014V99.02C186.685,95.684,189.96,90.441,189.96,84.565z"/>
	<path style="fill:#0C92B6;" d="M435.979,99.446c4.638-3.308,7.673-8.75,7.673-14.881c0-10.074-8.167-18.273-18.241-18.273h-84.95
		c-10.074,0-18.241,8.198-18.241,18.273c0,5.714,2.632,10.842,6.746,14.187v152.383H435.98V99.446H435.979z"/>
</g>
<g>
	<path style="fill:#364A57;" d="M108.856,445.707H79.671c-10.074,0-18.241-8.167-18.241-18.241s8.167-18.241,18.241-18.241h29.186
		c10.074,0,18.241,8.167,18.241,18.241S118.93,445.707,108.856,445.707z"/>
	<path style="fill:#364A57;" d="M432.331,445.707h-29.186c-10.074,0-18.241-8.167-18.241-18.241s8.167-18.241,18.241-18.241h29.186
		c10.074,0,18.241,8.167,18.241,18.241S442.404,445.707,432.331,445.707z"/>
</g>
<g>
	<path style="fill:#DD6B5B;" d="M189.96,84.565c0-10.074-8.346-18.273-18.42-18.273H86.59c-10.074,0-17.955,8.198-17.955,18.273
		c0,5.875,2.523,11.117,7.388,14.453v223.247c0,29.563,23.943,53.614,53.507,53.614s53.507-24.051,53.507-53.614V99.02
		C186.685,95.684,189.96,90.441,189.96,84.565z"/>
	<path style="fill:#DD6B5B;" d="M254.785,66.294h-41.259c-10.074,0-18.188,8.198-18.188,18.273c0,5.875,2.291,11.117,7.155,14.453
		v223.247c0,29.155,23.291,52.932,52.291,53.584L254.785,66.294L254.785,66.294z"/>
</g>
<path style="fill:#01AEDB;" d="M189.96,84.565c0-10.074-8.346-18.273-18.42-18.273H86.59c-10.074,0-17.955,8.198-17.955,18.273
	c0,5.875,2.523,11.117,7.388,14.453v198.327h107.014V99.02C186.685,95.684,189.96,90.441,189.96,84.565z"/>
<path style="fill:#476172;" d="M108.856,445.707H79.671c-10.074,0-18.241-8.167-18.241-18.241s8.167-18.241,18.241-18.241h29.186
	c10.074,0,18.241,8.167,18.241,18.241S118.93,445.707,108.856,445.707z"/>
<path style="fill:#96A8B0;" d="M477.137,427.898H34.863c-10.074,0-18.241-8.167-18.241-18.241V196.585
	c0-10.074,8.167-18.241,18.241-18.241s18.241,8.167,18.241,18.241v194.831h405.791V196.585c0-10.074,8.167-18.241,18.241-18.241
	c10.074,0,18.241,8.167,18.241,18.241v213.072C495.378,419.731,487.212,427.898,477.137,427.898z"/>
<path style="fill:#B9CED9;" d="M254.785,391.416H53.104V196.585c0-10.074-8.167-18.241-18.241-18.241s-18.241,8.167-18.241,18.241
	v213.072c0,10.074,8.167,18.241,18.241,18.241h219.921L254.785,391.416L254.785,391.416z"/>
<path style="fill:#0C92B6;" d="M316.662,84.565c0-10.074-8.114-18.273-18.188-18.273h-84.948c-10.074,0-18.188,8.198-18.188,18.273
	c0,5.875,2.291,11.117,7.155,14.453v174.006h107.014V99.02C314.372,95.683,316.662,90.44,316.662,84.565z"/>
<path style="fill:#01AEDB;" d="M254.785,273.026V66.294h-41.259c-10.074,0-18.188,8.198-18.188,18.273
	c0,5.875,2.291,11.117,7.155,14.453v174.006L254.785,273.026L254.785,273.026z"/>
<path style="fill:#364A57;" d="M493.759,214.826H18.241C8.167,214.826,0,206.659,0,196.585c0-10.074,8.167-18.241,18.241-18.241
	h475.518c10.074,0,18.241,8.167,18.241,18.241C512,206.659,503.833,214.826,493.759,214.826z"/>
<path style="fill:#476172;" d="M254.785,178.344H18.241C8.167,178.344,0,186.511,0,196.585c0,10.074,8.167,18.241,18.241,18.241
	h236.544V178.344z"/>
<g>
</g>
<g>
</g>
<g>
</g>
<g>
</g>
<g>
</g>
<g>
</g>
<g>
</g>
<g>
</g>
<g>
</g>
<g>
</g>
<g>
</g>
<g>
</g>
<g>
</g>
<g>
</g>
<g>
</g>
</svg>
